<svg xmlns="http://www.w3.org/2000/svg" width="20" height="20">
  <svg viewBox="0 0 20 16" fill="none">
    <g>
      <path d="M0 0H28.5V1.23125H0V0ZM0 2.4625H28.5V3.69375H0V2.4625ZM0 4.92188H28.5V6.15625H0V4.92188ZM0 7.38438H28.5V8.61563H0V7.38438ZM0 9.84688H28.5V11.0781H0V9.84688ZM0 12.3063H28.5V13.5375H0V12.3063ZM0 14.7688H28.5V16H0V14.7688Z" fill="#BD3D44"></path>
      <path d="M0 1.23145H28.5V2.4627H0V1.23145ZM0 3.69395H28.5V4.92207H0V3.69395ZM0 6.15332H28.5V7.38457H0V6.15332ZM0 8.61582H28.5V9.84707H0V8.61582ZM0 11.0783H28.5V12.3096H0V11.0783ZM0 13.5377H28.5V14.7689H0V13.5377Z" fill="white"></path>
    </g>
    <path d="M0 0H11.3994V8.61563H0V0Z" fill="#192F5D"></path>
    <path d="M0.949219 0.368774L1.05469 0.709399H1.38867L1.11914 0.918774L1.22168 1.26252L0.949219 1.05002L0.679688 1.2594L0.782227 0.918774L0.509766 0.709399H0.849609L0.949219 0.368774ZM2.85059 0.368774L2.95312 0.709399H3.29004L3.01758 0.918774L3.12012 1.26252L2.85059 1.05002L2.57812 1.2594L2.68066 0.918774L2.41113 0.709399H2.74512L2.85059 0.368774ZM4.74902 0.368774L4.85449 0.709399H5.18555L4.91602 0.918774L5.01855 1.26252L4.74609 1.05002L4.47656 1.2594L4.5791 0.918774L4.30664 0.709399H4.64355L4.74902 0.368774ZM6.65039 0.368774L6.75293 0.709399H7.08984L6.81738 0.918774L6.92285 1.26252L6.65039 1.05002L6.37793 1.2594L6.4834 0.918774L6.21094 0.709399H6.54492L6.65039 0.368774ZM8.54883 0.368774L8.6543 0.709399H8.98828L8.71875 0.918774L8.82129 1.26252L8.54883 1.05002L8.2793 1.2594L8.38184 0.918774L8.1123 0.709399H8.44629L8.54883 0.368774ZM10.4502 0.368774L10.5527 0.709399H10.8896L10.6172 0.918774L10.7227 1.26252L10.4502 1.05002L10.1777 1.2594L10.2832 0.918774L10.0107 0.709399H10.3477L10.4502 0.368774ZM1.90137 1.23127L2.00391 1.5719H2.34082L2.06836 1.78127L2.16797 2.1219L1.9043 1.91252L1.63184 2.1219L1.72852 1.78127L1.46484 1.5719H1.79883L1.90137 1.23127ZM3.7998 1.23127L3.90527 1.5719H4.23926L3.9668 1.78127L4.07227 2.1219L3.7998 1.91252L3.52734 2.1219L3.63281 1.78127L3.36035 1.5719H3.69727L3.7998 1.23127ZM5.70117 1.23127L5.80371 1.5719H6.14062L5.86816 1.78127L5.9707 2.1219L5.70117 1.91252L5.42871 2.1219L5.53125 1.78127L5.26172 1.5719H5.5957L5.70117 1.23127ZM7.59961 1.23127L7.70508 1.5719H8.03906L7.7666 1.78127L7.87207 2.1219L7.59961 1.91252L7.33008 2.1219L7.43262 1.78127L7.16016 1.5719H7.5L7.59961 1.23127ZM9.50098 1.23127L9.60351 1.5719H9.94043L9.66797 1.78127L9.77051 2.1219L9.50098 1.91252L9.22851 2.1219L9.33105 1.78127L9.06152 1.5719H9.39551L9.50098 1.23127ZM0.949219 2.09065L1.05469 2.43752H1.38867L1.11914 2.6469L1.22168 2.98752L0.949219 2.77502L0.679688 2.98752L0.782227 2.64377L0.509766 2.4344H0.849609L0.949219 2.09065ZM2.85059 2.09065L2.95312 2.4344H3.29004L3.01758 2.64377L3.12012 2.9844L2.85059 2.7719L2.57812 2.9844L2.68066 2.64065L2.41113 2.43127H2.74512L2.85059 2.09065ZM4.74902 2.09065L4.85449 2.4344H5.18555L4.91602 2.64377L5.01855 2.9844L4.74609 2.7719L4.47656 2.9844L4.5791 2.64065L4.30664 2.43127H4.64355L4.74902 2.09065ZM6.65039 2.09065L6.75293 2.4344H7.08984L6.81738 2.64377L6.92285 2.9844L6.65039 2.7719L6.37793 2.9844L6.4834 2.64065L6.21094 2.43127H6.54492L6.65039 2.09065ZM8.54883 2.09065L8.6543 2.4344H8.98828L8.71875 2.64377L8.82129 2.9844L8.54883 2.7719L8.2793 2.9844L8.38184 2.64065L8.1123 2.43127H8.44629L8.54883 2.09065ZM10.4502 2.09065L10.5527 2.4344H10.8896L10.6172 2.64377L10.7227 2.9844L10.4502 2.7719L10.1777 2.9844L10.2832 2.64065L10.0107 2.43127H10.3477L10.4502 2.09065ZM1.90137 2.95315L2.00391 3.29377H2.34082L2.06836 3.50315L2.1709 3.8469L1.90137 3.6344L1.62891 3.84377L1.73145 3.50315L1.46191 3.29377H1.7959L1.90137 2.95315ZM3.7998 2.95315L3.90527 3.29377H4.23926L3.9668 3.50315L4.07227 3.8469L3.7998 3.6344L3.52734 3.84377L3.63281 3.50315L3.36035 3.29377H3.69727L3.7998 2.95315ZM5.70117 2.95315L5.80371 3.29377H6.14062L5.86816 3.50315L5.9707 3.8469L5.70117 3.6344L5.42871 3.84377L5.53125 3.50315L5.26172 3.29377H5.5957L5.70117 2.95315ZM7.59961 2.95315L7.70508 3.29377H8.03906L7.76953 3.50315L7.87207 3.8469L7.59961 3.6344L7.33008 3.84377L7.43262 3.50315L7.16016 3.29377H7.5L7.59961 2.95315ZM9.50098 2.95315L9.60351 3.29377H9.94043L9.66797 3.50315L9.77051 3.8469L9.50098 3.6344L9.22851 3.84377L9.33105 3.50315L9.06152 3.29377H9.39551L9.50098 2.95315ZM0.949219 3.81565L1.05469 4.15627H1.38867L1.11914 4.36565L1.22168 4.7094L0.949219 4.4969L0.679688 4.70627L0.782227 4.36565L0.509766 4.15627H0.849609L0.949219 3.81565ZM2.85059 3.81565L2.95312 4.15627H3.29004L3.01758 4.36565L3.12012 4.70627L2.85059 4.4969L2.57812 4.70627L2.68066 4.36565L2.41113 4.15627H2.74512L2.85059 3.81565ZM4.74902 3.81565L4.85449 4.15627H5.18555L4.91602 4.36565L5.01855 4.7094L4.74609 4.4969L4.47656 4.70627L4.5791 4.36565L4.30664 4.15627H4.64355L4.74902 3.81565ZM6.65039 3.81565L6.75293 4.15627H7.08984L6.81738 4.36565L6.92285 4.7094L6.65039 4.4969L6.37793 4.70627L6.4834 4.36565L6.21094 4.15627H6.54492L6.65039 3.81565ZM8.54883 3.81565L8.6543 4.15627H8.98828L8.71875 4.36565L8.82129 4.7094L8.54883 4.4969L8.2793 4.70627L8.38184 4.36565L8.1123 4.15627H8.44629L8.54883 3.81565ZM10.4502 3.81565L10.5527 4.15627H10.8896L10.6172 4.36565L10.7227 4.7094L10.4502 4.4969L10.1777 4.70627L10.2832 4.36565L10.0107 4.15627H10.3477L10.4502 3.81565ZM1.90137 4.67815L2.00391 5.01877H2.34082L2.06836 5.22815L2.1709 5.56877L1.90137 5.35627L1.62891 5.56877L1.73145 5.22502L1.46191 5.01565H1.7959L1.90137 4.67815ZM3.7998 4.67815L3.90527 5.01877H4.23926L3.9668 5.22815L4.07227 5.56877L3.7998 5.35627L3.52734 5.56877L3.63281 5.22502L3.36035 5.01565H3.69727L3.7998 4.67815ZM5.70117 4.67815L5.80371 5.01877H6.14062L5.86816 5.22815L5.9707 5.56877L5.70117 5.35627L5.42871 5.56877L5.53125 5.22502L5.26172 5.01565H5.5957L5.70117 4.67815ZM7.59961 4.67815L7.70508 5.01877H8.03906L7.76953 5.22815L7.87207 5.56877L7.59961 5.35627L7.33008 5.56877L7.43262 5.22502L7.16016 5.01565H7.5L7.59961 4.67815ZM9.50098 4.67815L9.60351 5.01877H9.94043L9.66797 5.22815L9.77051 5.56877L9.50098 5.35627L9.22851 5.56877L9.33105 5.22502L9.06152 5.01565H9.39551L9.50098 4.67815ZM0.949219 5.53752L1.05469 5.88127H1.38867L1.11914 6.09065L1.22168 6.42815L0.949219 6.21877L0.679688 6.42815L0.782227 6.08752L0.509766 5.87815H0.849609L0.949219 5.53752ZM2.85059 5.53752L2.95312 5.88127H3.29004L3.01758 6.09065L3.12305 6.42815L2.85059 6.21877L2.57812 6.42815L2.68359 6.08752L2.41113 5.87815H2.74512L2.85059 5.53752ZM4.74902 5.53752L4.85449 5.88127H5.18555L4.91602 6.09065L5.01855 6.42815L4.74609 6.21877L4.47656 6.42815L4.5791 6.08752L4.30664 5.87815H4.64355L4.74902 5.53752ZM6.65039 5.53752L6.75293 5.88127H7.08984L6.81738 6.09065L6.92285 6.42815L6.65039 6.21877L6.37793 6.42815L6.4834 6.08752L6.21094 5.87815H6.54492L6.65039 5.53752ZM8.54883 5.53752L8.6543 5.88127H8.98828L8.71875 6.09065L8.82129 6.42815L8.54883 6.21877L8.2793 6.42815L8.38184 6.08752L8.1123 5.87815H8.44629L8.54883 5.53752ZM10.4502 5.53752L10.5527 5.88127H10.8896L10.6172 6.09065L10.7227 6.42815L10.4502 6.21877L10.1777 6.42815L10.2832 6.08752L10.0107 5.87815H10.3477L10.4502 5.53752ZM1.90137 6.40002L2.00391 6.74065H2.34082L2.06836 6.95002L2.1709 7.29377L1.90137 7.08127L1.62891 7.29065L1.73145 6.95002L1.46191 6.74065H1.7959L1.90137 6.40002ZM3.7998 6.40002L3.90527 6.74065H4.23926L3.9668 6.95002L4.07227 7.29377L3.7998 7.08127L3.52734 7.29065L3.63281 6.95002L3.36035 6.74065H3.69727L3.7998 6.40002ZM5.70117 6.40002L5.80371 6.74065H6.14062L5.86816 6.95002L5.9707 7.29377L5.70117 7.08127L5.42871 7.29065L5.53125 6.95002L5.26172 6.74065H5.5957L5.70117 6.40002ZM7.59961 6.40002L7.70508 6.74065H8.03906L7.76953 6.95002L7.87207 7.29377L7.59961 7.08127L7.33008 7.29065L7.43262 6.95002L7.16016 6.74065H7.5L7.59961 6.40002ZM9.50098 6.40002L9.60351 6.74065H9.94043L9.66797 6.95002L9.77051 7.29377L9.50098 7.08127L9.22851 7.29065L9.33105 6.95002L9.06152 6.74065H9.39551L9.50098 6.40002ZM0.949219 7.26252L1.05469 7.60315H1.38867L1.11914 7.81252L1.22168 8.15315L0.949219 7.94377L0.679688 8.15315L0.782227 7.8094L0.509766 7.60002H0.849609L0.949219 7.26252ZM2.85059 7.26252L2.95312 7.60315H3.29004L3.01758 7.81252L3.12305 8.15315L2.85059 7.94377L2.57812 8.15315L2.68359 7.8094L2.41113 7.60002H2.74512L2.85059 7.26252ZM4.74902 7.26252L4.85449 7.60315H5.18555L4.92187 7.81252L5.02441 8.15315L4.75195 7.94377L4.48242 8.15315L4.58496 7.8094L4.3125 7.60002H4.64941L4.74902 7.26252ZM6.65039 7.26252L6.75293 7.60315H7.08984L6.81738 7.81252L6.92285 8.15315L6.65039 7.94377L6.37793 8.15315L6.4834 7.8094L6.21094 7.60002H6.54492L6.65039 7.26252ZM8.54883 7.26252L8.6543 7.60315H8.98828L8.71875 7.81252L8.82129 8.15315L8.54883 7.94377L8.2793 8.15315L8.38184 7.8094L8.1123 7.60002H8.44629L8.54883 7.26252ZM10.4502 7.26252L10.5527 7.60315H10.8896L10.6172 7.81252L10.7227 8.15315L10.4502 7.94377L10.1777 8.15315L10.2832 7.8094L10.0107 7.60002H10.3477L10.4502 7.26252Z" fill="white"></path>
    <defs>
      <clipPath id="clip0">
        <rect x="0.124023" y="0.00158691" width="20" height="16" fill="white"></rect>
      </clipPath>
    </defs>
  </svg>
</svg>
